<svg width="792" height="930" viewBox="0 0 792 930" fill="none" xmlns="http://www.w3.org/2000/svg">
<path d="M414.911 44.9964C414.911 44.9964 613.737 82.956 609.279 161.455C604.822 239.955 -108.914 380.3 14.6563 533.448C138.227 686.596 254.465 673.226 49.7329 759.896C-47 800.847 14.6563 929.405 165.189 929.405H791.78V57.2717L414.911 44.9964Z" fill="url(#paint0_linear)"/>
<path d="M717.736 97.3424L716.485 118.277C724.305 124.981 731.755 118.277 731.755 118.277L730.621 97.3424H717.736Z" fill="url(#paint1_linear)"/>
<path d="M725.264 0L760.771 91.713C760.771 91.713 725.029 123.906 687.508 91.713L725.264 0Z" fill="url(#paint2_linear)"/>
<path d="M598.115 101.682L596.864 122.616C604.685 129.321 612.134 122.616 612.134 122.616L611 101.682H598.115Z" fill="url(#paint3_linear)"/>
<path d="M605.623 4.33936L641.13 96.0523C641.13 96.0523 605.388 128.246 567.868 96.0523L605.623 4.33936Z" fill="url(#paint4_linear)"/>
<path d="M648.99 147.05L647.739 167.984C655.56 174.689 663.009 167.984 663.009 167.984L661.875 147.05H648.99V147.05Z" fill="url(#paint5_linear)"/>
<path d="M656.498 49.7267L692.005 141.44C692.005 141.44 656.264 173.633 618.743 141.44L656.498 49.7267Z" fill="url(#paint6_linear)"/>
<path d="M710.11 192.437L708.859 213.371C716.68 220.076 724.13 213.371 724.13 213.371L722.995 192.437H710.11V192.437Z" fill="url(#paint7_linear)"/>
<path d="M717.618 95.0945L753.125 186.807C753.125 186.807 717.384 219.001 679.863 186.807L717.618 95.0945Z" fill="url(#paint8_linear)"/>
<path d="M673.47 253.071L672.218 274.005C680.039 280.71 687.488 274.005 687.488 274.005L686.354 253.071H673.47Z" fill="url(#paint9_linear)"/>
<path d="M680.997 155.728L716.504 247.441C716.504 247.441 680.763 279.635 643.242 247.441L680.997 155.728Z" fill="url(#paint10_linear)"/>
<path d="M725.381 330.456L724.13 351.39C731.95 358.095 739.4 351.39 739.4 351.39L738.246 330.456H725.381Z" fill="url(#paint11_linear)"/>
<path d="M732.889 233.114L768.396 324.827C768.396 324.827 732.654 357.02 695.133 324.827L732.889 233.114Z" fill="url(#paint12_linear)"/>
<path d="M419.975 396.7L350.388 360.695L442.479 309.776L512.867 347.95L419.975 396.7Z" fill="url(#paint13_linear)"/>
<path d="M367.066 369.334L389.16 318.357L393.149 321.738L371.035 371.387L367.066 369.334Z" fill="url(#paint14_linear)"/>
<path d="M383.47 346.367C383.49 346.504 383.47 346.621 383.431 346.797L372.756 372.286L365.737 368.65L376.393 344.002C376.451 343.885 376.529 343.806 376.588 343.728V343.709L376.686 343.591C377.311 343.044 378.328 343.396 378.328 343.396C377.879 344.627 381.222 346.817 382.708 345.194C382.708 345.175 383.412 345.585 383.47 346.367Z" fill="url(#paint15_linear)"/>
<path d="M383.47 346.367C383.099 347.266 382.063 347.833 380.107 347.266C378.133 346.699 376.412 345.135 376.588 343.689L376.686 343.572C377.312 343.024 378.328 343.376 378.328 343.376C377.879 344.608 381.222 346.797 382.708 345.175C382.708 345.175 383.412 345.585 383.47 346.367Z" fill="url(#paint16_linear)"/>
<path d="M510.169 344.119L503.619 338.333L497.089 328.677L495.916 326.957L489.972 318.122L488.799 316.382L482.816 307.567L481.643 305.808L475.679 296.992L474.526 295.272L468.562 286.437L467.389 284.697L460.858 275.041L459.685 273.302L454.484 265.62L446.253 270.037L444.454 270.995L434.326 276.39L432.508 277.367L423.279 282.293L421.461 283.27L412.212 288.196L410.394 289.173L401.165 294.099L399.347 295.057L390.118 300.002L388.3 300.96L378.192 306.355L368.982 308.681L368.337 311.632L373.655 319.236L374.868 320.956L381.535 330.515L382.747 332.235L388.847 340.992L390.06 342.712L396.18 351.469L397.372 353.189L403.492 361.926L404.685 363.646L410.805 372.384L411.997 374.104L418.684 383.681L419.896 385.402L425.058 392.79L432.625 388.685L434.424 387.708L444.493 382.255L446.292 381.277L455.501 376.293L457.32 375.316L466.509 370.331L468.327 369.354L477.537 364.369L479.355 363.392L488.544 358.408L490.363 357.43L500.413 351.977L502.231 351L509.505 347.051L510.169 344.119Z" fill="url(#paint17_linear)"/>
<path d="M505.438 337.141L504.265 335.382L497.754 325.726L496.581 324.006L490.617 315.19L489.444 313.45L483.481 304.615L482.307 302.876L476.344 294.04L475.171 292.32L469.207 283.485L468.034 281.765L461.504 272.109L460.35 270.37L455.149 262.688L446.898 267.086L445.099 268.043L434.991 273.438L433.173 274.416L423.924 279.341L422.106 280.319L412.877 285.244L411.059 286.222L401.83 291.148L400.012 292.125L390.783 297.051L388.945 298.028L378.856 303.403L377.038 304.381L368.982 308.681L374.32 316.285L375.513 318.024L382.2 327.583L383.392 329.283L389.512 338.06L390.705 339.76L396.825 348.517L398.037 350.237L404.137 358.975L405.35 360.714L411.45 369.452L412.662 371.152L419.349 380.749L420.542 382.45L425.704 389.839L433.29 385.753L435.089 384.776L445.158 379.323L446.957 378.345L456.166 373.341L457.965 372.364L467.174 367.399L468.992 366.422L478.182 361.418L480 360.441L489.19 355.476L491.008 354.498L501.078 349.045L502.876 348.068L510.169 344.119L505.438 337.141Z" fill="url(#paint18_linear)"/>
<path opacity="0.25" d="M505.438 337.141L504.265 335.401L496.854 339.369L490.207 329.772L497.734 325.745L496.561 324.025L489.033 328.052L482.972 319.275L490.617 315.21L489.444 313.47L481.78 317.555L475.718 308.779L483.481 304.635L482.307 302.895L474.526 307.059L468.464 298.282L476.344 294.06L475.171 292.34L467.272 296.542L461.211 287.766L469.227 283.485L468.054 281.765L460.037 286.046L453.409 276.429L461.543 272.09L460.389 270.35L452.236 274.709L446.957 267.066L445.158 268.024L450.437 275.667L440.329 281.061L435.05 273.419L433.231 274.396L438.51 282.039L429.282 286.965L424.003 279.322L422.184 280.299L427.463 287.942L418.215 292.868L412.936 285.225L411.118 286.202L416.397 293.845L407.149 298.771L401.869 291.128L400.051 292.105L405.33 299.748L396.082 304.674L390.803 297.031L388.984 298.008L394.264 305.651L384.155 311.046L378.876 303.403L377.058 304.381L382.337 312.023L374.34 316.285L375.533 318.024L383.51 313.763L390.158 323.36L382.219 327.602L383.432 329.322L391.35 325.1L397.411 333.877L389.512 338.099L390.725 339.819L398.604 335.616L404.665 344.393L396.845 348.576L398.057 350.296L405.878 346.113L411.939 354.889L404.177 359.033L405.369 360.773L413.132 356.629L419.193 365.405L411.489 369.53L412.701 371.25L420.405 367.145L427.033 376.762L419.388 380.828L420.601 382.548L428.245 378.463L433.349 385.832L435.147 384.854L430.064 377.505L440.172 372.11L445.217 379.42L447.016 378.443L441.991 371.152L451.239 366.226L456.244 373.459L458.043 372.481L453.057 365.249L462.286 360.323L467.252 367.497L469.071 366.52L464.124 359.346L473.352 354.42L478.28 361.535L480.098 360.558L475.171 353.443L484.419 348.517L489.288 355.573L491.106 354.596L486.237 347.54L496.346 342.164L501.175 349.162L502.974 348.185L498.145 341.187L505.438 337.141ZM487.235 329.01L477.126 334.385L471.065 325.608L481.173 320.214L487.235 329.01ZM438.686 326.175L429.458 331.101L423.396 322.325L432.645 317.399L438.686 326.175ZM434.424 316.421L443.672 311.496L449.733 320.272L440.505 325.198L434.424 316.421ZM439.879 327.895L445.94 336.672L436.712 341.598L430.65 332.821L439.879 327.895ZM441.697 326.918L450.946 321.992L457.007 330.769L447.759 335.694L441.697 326.918ZM452.744 321.034L461.973 316.109L468.034 324.885L458.786 329.811L452.744 321.034ZM451.552 319.295L445.49 310.518L454.739 305.593L460.8 314.369L451.552 319.295ZM444.298 308.798L438.237 300.022L447.485 295.096L453.546 303.872L444.298 308.798ZM442.479 309.776L433.231 314.701L427.17 305.925L436.418 300.999L442.479 309.776ZM431.432 315.679L422.184 320.604L416.123 311.828L425.371 306.902L431.432 315.679ZM420.385 321.582L411.137 326.508L405.076 317.731L414.324 312.805L420.385 321.582ZM421.559 323.302L427.62 332.078L418.372 337.004L412.31 328.228L421.559 323.302ZM428.812 333.798L434.874 342.575L425.645 347.501L419.584 338.724L428.812 333.798ZM436.086 344.295L442.147 353.071L432.918 357.997L426.857 349.221L436.086 344.295ZM437.885 343.318L447.113 338.392L453.175 347.168L443.926 352.094L437.885 343.318ZM448.951 337.434L458.18 332.508L464.241 341.285L454.993 346.211L448.951 337.434ZM459.998 331.531L469.227 326.605L475.288 335.382L466.04 340.307L459.998 331.531ZM479.961 318.513L469.853 323.888L463.791 315.112L473.9 309.697L479.961 318.513ZM472.707 308.016L462.599 313.392L456.538 304.615L466.646 299.22L472.707 308.016ZM465.453 297.52L455.364 302.915L449.303 294.138L459.412 288.743L465.453 297.52ZM451.571 277.406L458.199 287.023L448.091 292.399L441.443 282.801L451.571 277.406ZM439.644 283.759L446.273 293.356L437.024 298.282L430.377 288.685L439.644 283.759ZM428.597 289.662L435.226 299.259L425.977 304.185L419.33 294.588L428.597 289.662ZM417.531 295.565L424.159 305.163L414.911 310.088L408.263 300.491L417.531 295.565ZM406.484 301.468L413.112 311.066L403.864 315.991L397.216 306.394L406.484 301.468ZM385.309 312.786L395.417 307.391L402.045 316.988L391.937 322.383L385.309 312.786ZM393.149 324.084L403.258 318.708L409.319 327.485L399.21 332.88L393.149 324.084ZM400.403 334.6L410.512 329.224L416.573 338.001L406.464 343.396L400.403 334.6ZM407.657 345.096L417.765 339.721L423.827 348.498L413.718 353.892L407.657 345.096ZM414.911 355.593L425.019 350.218L431.08 358.994L420.992 364.389L414.911 355.593ZM428.812 375.687L422.184 366.09L432.293 360.714L438.941 370.312L428.812 375.687ZM440.739 369.334L434.111 359.737L443.34 354.811L449.988 364.408L440.739 369.334ZM451.786 363.431L445.158 353.834L454.387 348.908L461.035 358.505L451.786 363.431ZM462.833 357.528L456.205 347.931L465.453 343.005L472.101 352.602L462.833 357.528ZM473.88 351.625L467.252 342.028L476.5 337.102L483.148 346.699L473.88 351.625ZM484.947 345.722L478.319 336.124L488.427 330.73L495.055 340.347L484.947 345.722Z" fill="url(#paint19_linear)"/>
<path opacity="0.25" d="M368.982 308.681L423.826 387.161C423.826 387.161 463.009 335.343 470.165 284.912L455.149 262.688L368.982 308.681Z" fill="url(#paint20_linear)"/>
<path d="M299.533 459.308L229.946 423.303L322.037 372.384L392.425 410.558L299.533 459.308Z" fill="url(#paint21_linear)"/>
<path d="M246.624 431.942L268.718 380.965L272.707 384.346L250.593 433.995L246.624 431.942Z" fill="url(#paint22_linear)"/>
<path d="M263.029 408.975C263.048 409.112 263.029 409.229 262.99 409.405L252.314 434.894L245.295 431.258L255.951 406.61C256.009 406.492 256.088 406.414 256.146 406.336V406.317L256.244 406.199C256.87 405.652 257.886 406.004 257.886 406.004C257.437 407.235 260.78 409.405 262.266 407.783C262.266 407.783 262.97 408.193 263.029 408.975Z" fill="url(#paint23_linear)"/>
<path d="M263.029 408.975C262.657 409.874 261.621 410.441 259.666 409.874C257.691 409.307 255.97 407.743 256.146 406.297L256.244 406.18C256.87 405.632 257.886 405.984 257.886 405.984C257.437 407.216 260.78 409.385 262.266 407.763C262.266 407.783 262.97 408.193 263.029 408.975Z" fill="url(#paint24_linear)"/>
<path d="M389.727 406.727L383.177 400.941L376.647 391.285L375.474 389.565L369.53 380.73L368.357 378.99L362.374 370.175L361.2 368.416L355.237 359.6L354.083 357.88L348.12 349.045L346.947 347.305L340.416 337.649L339.243 335.909L334.042 328.228L325.811 332.645L324.012 333.603L313.884 338.998L312.066 339.975L302.837 344.901L301.019 345.878L291.77 350.804L289.952 351.781L280.723 356.707L278.905 357.665L269.676 362.61L267.858 363.568L257.749 368.963L248.54 371.289L247.895 374.221L253.213 381.844L254.426 383.564L261.093 393.123L262.305 394.843L268.405 403.6L269.618 405.32L275.738 414.077L276.93 415.797L283.05 424.534L284.243 426.254L290.363 434.991L291.555 436.712L298.242 446.289L299.454 448.01L304.616 455.398L312.183 451.293L313.982 450.316L324.051 444.863L325.85 443.885L335.059 438.901L336.877 437.923L346.067 432.939L347.885 431.962L357.095 426.977L358.913 426L368.102 421.016L369.921 420.038L379.971 414.585L381.789 413.607L389.062 409.659L389.727 406.727Z" fill="url(#paint25_linear)"/>
<path d="M384.996 399.749L383.823 397.99L377.312 388.334L376.138 386.614L370.175 377.798L369.002 376.039L363.038 367.223L361.865 365.484L355.902 356.648L354.729 354.928L348.765 346.093L347.592 344.373L341.062 334.717L339.908 332.958L334.707 325.296L326.456 329.694L324.657 330.651L314.549 336.046L312.731 337.024L303.482 341.949L301.664 342.927L292.435 347.852L290.617 348.83L281.388 353.756L279.57 354.733L270.322 359.659L268.503 360.636L258.414 366.011L256.576 366.989L248.541 371.289L253.878 378.893L255.071 380.632L261.758 390.191L262.951 391.891L269.07 400.668L270.263 402.368L276.383 411.125L277.595 412.845L283.695 421.582L284.908 423.322L291.008 432.059L292.22 433.76L298.907 443.357L300.1 445.058L305.262 452.447L312.848 448.361L314.647 447.384L324.716 441.931L326.515 440.953L335.724 435.949L337.523 434.972L346.732 430.007L348.55 429.03L357.74 424.026L359.558 423.048L368.748 418.084L370.566 417.106L380.636 411.653L382.434 410.675L389.727 406.727L384.996 399.749Z" fill="url(#paint26_linear)"/>
<path opacity="0.25" d="M384.996 399.749L383.823 398.009L376.412 401.977L369.764 392.38L377.292 388.353L376.119 386.633L368.591 390.66L362.53 381.883L370.175 377.817L369.002 376.078L361.337 380.163L355.276 371.387L363.038 367.243L361.865 365.503L354.083 369.667L348.022 360.89L355.902 356.668L354.729 354.948L346.83 359.15L340.768 350.374L348.785 346.093L347.612 344.373L339.595 348.654L332.967 339.056L341.101 334.717L339.947 332.977L331.794 337.336L326.515 329.694L324.716 330.651L329.995 338.294L319.887 343.689L314.607 336.046L312.789 337.024L318.068 344.666L308.84 349.592L303.56 341.949L301.742 342.927L307.021 350.569L297.773 355.495L292.494 347.852L290.676 348.83L295.955 356.473L286.706 361.398L281.427 353.756L279.609 354.733L284.888 362.376L275.64 367.301L270.361 359.659L268.542 360.636L273.821 368.279L263.713 373.654L258.434 366.011L256.615 366.989L261.895 374.631L253.898 378.893L255.09 380.632L263.068 376.371L269.715 385.968L261.777 390.21L262.989 391.93L270.908 387.708L276.969 396.485L269.07 400.707L270.283 402.427L278.162 398.224L284.223 407.001L276.402 411.184L277.615 412.904L285.436 408.721L291.497 417.497L283.734 421.641L284.927 423.381L292.689 419.237L298.751 428.013L291.047 432.138L292.259 433.858L299.963 429.753L306.591 439.37L298.946 443.436L300.158 445.156L307.803 441.071L312.906 448.44L314.705 447.462L309.622 440.113L319.73 434.718L324.775 442.028L326.573 441.051L321.549 433.76L330.797 428.834L335.802 436.067L337.601 435.089L332.615 427.857L341.844 422.931L346.81 430.105L348.628 429.127L343.682 421.954L352.91 417.028L357.838 424.143L359.656 423.166L354.729 416.051L363.977 411.125L368.845 418.181L370.664 417.204L365.795 410.148L375.904 404.772L380.733 411.77L382.532 410.793L377.703 403.795L384.996 399.749ZM366.792 391.617L356.684 396.993L350.623 388.216L360.731 382.821L366.792 391.617ZM318.244 388.783L309.016 393.709L302.954 384.932L312.203 380.007L318.244 388.783ZM313.982 379.029L323.23 374.104L329.291 382.88L320.063 387.806L313.982 379.029ZM319.437 390.503L325.498 399.28L316.269 404.205L310.208 395.429L319.437 390.503ZM321.255 389.526L330.503 384.6L336.565 393.377L327.316 398.302L321.255 389.526ZM332.302 383.623L341.531 378.697L347.592 387.474L338.344 392.399L332.302 383.623ZM331.11 381.903L325.048 373.126L334.297 368.201L340.358 376.977L331.11 381.903ZM323.856 371.406L317.794 362.63L327.043 357.704L333.104 366.48L323.856 371.406ZM322.037 372.384L312.789 377.309L306.728 368.533L315.976 363.607L322.037 372.384ZM310.99 378.287L301.742 383.212L295.681 374.436L304.929 369.51L310.99 378.287ZM299.924 384.19L290.676 389.115L284.614 380.339L293.863 375.413L299.924 384.19ZM301.116 385.91L307.178 394.686L297.929 399.612L291.868 390.836L301.116 385.91ZM308.37 396.406L314.431 405.183L305.203 410.109L299.142 401.332L308.37 396.406ZM315.644 406.903L321.705 415.679L312.476 420.605L306.415 411.829L315.644 406.903ZM317.443 405.926L326.671 401L332.732 409.776L323.484 414.702L317.443 405.926ZM328.509 400.023L337.738 395.097L343.799 403.873L334.551 408.799L328.509 400.023ZM339.556 394.139L348.785 389.213L354.846 397.99L345.598 402.915L339.556 394.139ZM359.519 381.121L349.411 386.516L343.349 377.739L353.458 372.325L359.519 381.121ZM352.265 370.624L342.157 376L336.095 367.223L346.204 361.828L352.265 370.624ZM345.011 360.128L334.922 365.523L328.861 356.746L338.97 351.351L345.011 360.128ZM331.129 340.014L337.757 349.612L327.649 354.987L321.001 345.39L331.129 340.014ZM319.202 346.367L325.83 355.964L316.582 360.89L309.934 351.293L319.202 346.367ZM308.155 352.27L314.783 361.867L305.535 366.793L298.887 357.196L308.155 352.27ZM297.089 358.173L303.717 367.771L294.469 372.696L287.821 363.099L297.089 358.173ZM286.042 364.076L292.67 373.674L283.422 378.599L276.774 369.002L286.042 364.076ZM264.867 375.394L274.975 369.999L281.603 379.616L271.495 385.011L264.867 375.394ZM272.707 386.692L282.816 381.316L288.877 390.093L278.768 395.488L272.707 386.692ZM279.961 397.208L290.069 391.832L296.131 400.609L286.022 406.004L279.961 397.208ZM287.215 407.704L297.323 402.329L303.384 411.105L293.276 416.5L287.215 407.704ZM294.469 418.201L304.577 412.826L310.638 421.602L300.549 426.997L294.469 418.201ZM308.37 438.295L301.742 428.678L311.851 423.303L318.498 432.9L308.37 438.295ZM320.297 431.942L313.669 422.325L322.898 417.399L329.545 426.997L320.297 431.942ZM331.344 426.039L324.716 416.442L333.945 411.516L340.592 421.113L331.344 426.039ZM342.391 420.136L335.763 410.519L345.011 405.593L351.659 415.191L342.391 420.136ZM353.438 414.233L346.81 404.636L356.058 399.71L362.706 409.307L353.438 414.233ZM364.505 408.33L357.877 398.732L367.985 393.338L374.613 402.935L364.505 408.33Z" fill="url(#paint27_linear)"/>
<path opacity="0.25" d="M248.541 371.289L303.385 449.769C303.385 449.769 342.567 397.951 349.723 347.52L334.707 325.296L248.541 371.289Z" fill="url(#paint28_linear)"/>
<path d="M179.99 522.834L110.404 486.829L202.495 435.91L272.883 474.085L179.99 522.834Z" fill="url(#paint29_linear)"/>
<path d="M127.082 495.469L149.176 444.491L153.164 447.873L131.051 497.521L127.082 495.469Z" fill="url(#paint30_linear)"/>
<path d="M143.486 472.502C143.506 472.638 143.486 472.756 143.447 472.932L132.771 498.42L125.752 494.785L136.408 470.136C136.467 470.019 136.545 469.941 136.604 469.863V469.843L136.701 469.726C137.327 469.179 138.344 469.53 138.344 469.53C137.894 470.762 141.238 472.951 142.724 471.329C142.724 471.309 143.427 471.72 143.486 472.502Z" fill="url(#paint31_linear)"/>
<path d="M143.486 472.502C143.115 473.401 142.078 473.968 140.123 473.401C138.148 472.834 136.428 471.27 136.604 469.824L136.701 469.706C137.327 469.159 138.344 469.511 138.344 469.511C137.894 470.742 141.238 472.932 142.724 471.309C142.724 471.309 143.428 471.72 143.486 472.502Z" fill="url(#paint32_linear)"/>
<path d="M270.185 470.254L263.635 464.468L257.104 454.812L255.931 453.092L249.987 444.257L248.814 442.517L242.831 433.701L241.658 431.942L235.694 423.127L234.541 421.407L228.577 412.571L227.404 410.832L220.874 401.176L219.701 399.436L214.5 391.754L206.268 396.172L204.469 397.13L194.341 402.524L192.523 403.502L183.294 408.428L181.476 409.405L172.228 414.331L170.409 415.308L161.181 420.234L159.362 421.192L150.134 426.137L148.315 427.095L138.207 432.49L128.998 434.816L128.353 437.748L133.671 445.371L134.883 447.091L141.55 456.649L142.763 458.369L148.863 467.126L150.075 468.846L156.195 477.603L157.388 479.323L163.507 488.061L164.7 489.781L170.82 498.518L172.013 500.238L178.7 509.816L179.912 511.536L185.074 518.925L192.64 514.82L194.439 513.843L204.509 508.389L206.307 507.412L215.517 502.428L217.335 501.45L226.524 496.466L228.343 495.488L237.552 490.504L239.351 489.527L248.56 484.542L250.378 483.565L260.428 478.111L262.246 477.134L269.52 473.186L270.185 470.254Z" fill="url(#paint33_linear)"/>
<path d="M265.453 463.276L264.28 461.516L257.769 451.86L256.596 450.14L250.632 441.325L249.459 439.565L243.496 430.75L242.323 429.01L236.359 420.175L235.186 418.455L229.223 409.62L228.05 407.9L221.519 398.244L220.366 396.485L215.165 388.822L206.914 393.22L205.115 394.178L195.006 399.573L193.188 400.55L183.94 405.476L182.121 406.453L172.893 411.379L171.074 412.356L161.846 417.282L160.027 418.26L150.779 423.185L148.961 424.163L138.872 429.538L137.034 430.515L128.998 434.816L134.336 442.419L135.528 444.159L142.215 453.717L143.408 455.418L149.528 464.194L150.72 465.895L156.84 474.652L158.052 476.372L164.153 485.109L165.365 486.849L171.465 495.586L172.678 497.287L179.364 506.884L180.557 508.585L185.719 515.973L193.305 511.888L195.104 510.911L205.173 505.457L206.972 504.48L216.181 499.476L217.98 498.499L227.189 493.534L229.008 492.556L238.197 487.552L240.016 486.575L249.205 481.61L251.023 480.633L261.093 475.179L262.892 474.202L270.185 470.254L265.453 463.276Z" fill="url(#paint34_linear)"/>
<path opacity="0.25" d="M265.453 463.276L264.28 461.536L256.87 465.504L250.222 455.906L257.749 451.88L256.576 450.16L249.049 454.186L242.987 445.41L250.632 441.344L249.459 439.605L241.795 443.69L235.734 434.913L243.496 430.769L242.323 429.03L234.541 433.193L228.48 424.417L236.359 420.195L235.186 418.475L227.287 422.677L221.226 413.901L229.242 409.62L228.069 407.9L220.053 412.181L213.424 402.583L221.558 398.244L220.405 396.504L212.251 400.863L206.972 393.22L205.173 394.178L210.452 401.821L200.344 407.216L195.065 399.573L193.247 400.55L198.526 408.193L189.297 413.119L184.018 405.476L182.199 406.453L187.479 414.096L178.23 419.022L172.951 411.379L171.133 412.356L176.412 419.999L167.164 424.925L161.885 417.282L160.066 418.26L165.345 425.902L156.097 430.828L150.818 423.185L149 424.163L154.279 431.805L144.17 437.2L138.891 429.558L137.073 430.535L142.352 438.178L134.355 442.439L135.548 444.178L143.525 439.917L150.173 449.515L142.235 453.756L143.447 455.476L151.366 451.254L157.427 460.031L149.528 464.253L150.74 465.973L158.619 461.77L164.681 470.547L156.86 474.73L158.072 476.45L165.893 472.267L171.954 481.043L164.192 485.187L165.385 486.927L173.147 482.783L179.208 491.56L171.504 495.684L172.717 497.404L180.42 493.299L187.048 502.897L179.403 506.962L180.616 508.682L188.261 504.597L193.364 511.966L195.163 510.989L190.079 503.639L200.188 498.245L205.232 505.555L207.031 504.578L202.006 497.287L211.254 492.361L216.26 499.593L218.058 498.616L213.072 491.384L222.301 486.458L227.267 493.632L229.086 492.654L224.139 485.481L233.368 480.555L238.295 487.67L240.113 486.692L235.186 479.577L244.434 474.652L249.303 481.708L251.121 480.731L246.253 473.674L256.361 468.299L261.191 475.297L262.989 474.319L258.16 467.322L265.453 463.276ZM247.23 455.144L237.122 460.519L231.061 451.743L241.169 446.348L247.23 455.144ZM198.702 452.31L189.473 457.236L183.412 448.459L192.66 443.533L198.702 452.31ZM194.439 442.556L203.687 437.63L209.749 446.407L200.52 451.333L194.439 442.556ZM199.894 454.03L205.955 462.806L196.727 467.732L190.666 458.956L199.894 454.03ZM201.713 453.053L210.961 448.127L217.022 456.903L207.774 461.829L201.713 453.053ZM212.76 447.15L221.988 442.224L228.05 451L218.801 455.926L212.76 447.15ZM211.567 445.429L205.506 436.653L214.754 431.727L220.815 440.504L211.567 445.429ZM204.313 434.933L198.252 426.156L207.5 421.231L213.561 430.007L204.313 434.933ZM202.495 435.91L193.247 440.836L187.185 432.06L196.434 427.134L202.495 435.91ZM191.448 441.813L182.199 446.739L176.138 437.963L185.386 433.037L191.448 441.813ZM180.381 447.716L171.133 452.642L165.072 443.866L174.32 438.94L180.381 447.716ZM181.574 449.436L187.635 458.213L178.387 463.139L172.326 454.362L181.574 449.436ZM188.828 459.933L194.889 468.71L185.66 473.635L179.599 464.859L188.828 459.933ZM196.101 470.43L202.162 479.206L192.934 484.132L186.872 475.355L196.101 470.43ZM197.9 469.452L207.129 464.527L213.19 473.303L203.942 478.229L197.9 469.452ZM208.966 463.549L218.195 458.623L224.256 467.4L215.008 472.326L208.966 463.549ZM220.014 457.666L229.242 452.74L235.303 461.516L226.055 466.442L220.014 457.666ZM239.976 444.648L229.868 450.023L223.807 441.246L233.915 435.832L239.976 444.648ZM232.723 434.151L222.614 439.526L216.553 430.75L226.661 425.355L232.723 434.151ZM225.469 423.654L215.38 429.049L209.318 420.273L219.427 414.878L225.469 423.654ZM211.587 403.541L218.215 413.158L208.106 418.533L201.458 408.936L211.587 403.541ZM199.66 409.894L206.288 419.491L197.04 424.417L190.392 414.819L199.66 409.894ZM188.613 415.797L195.241 425.394L185.993 430.32L179.345 420.722L188.613 415.797ZM177.546 421.7L184.174 431.317L174.926 436.242L168.278 426.645L177.546 421.7ZM166.499 427.603L173.127 437.2L163.879 442.126L157.231 432.529L166.499 427.603ZM145.324 438.92L155.432 433.526L162.061 443.123L151.952 448.518L145.324 438.92ZM153.164 450.218L163.273 444.843L169.334 453.62L159.226 459.014L153.164 450.218ZM160.418 460.734L170.527 455.359L176.588 464.136L166.479 469.531L160.418 460.734ZM167.672 471.231L177.781 465.856L183.842 474.632L173.733 480.027L167.672 471.231ZM174.926 481.728L185.035 476.352L191.096 485.129L181.007 490.524L174.926 481.728ZM188.828 501.822L182.199 492.224L192.308 486.849L198.956 496.446L188.828 501.822ZM200.755 495.469L194.126 485.872L203.355 480.946L210.003 490.543L200.755 495.469ZM211.802 489.566L205.173 479.968L214.402 475.043L221.05 484.64L211.802 489.566ZM222.849 483.663L216.22 474.065L225.469 469.14L232.116 478.737L222.849 483.663ZM233.896 477.76L227.267 468.162L236.516 463.236L243.163 472.834L233.896 477.76ZM244.962 471.857L238.334 462.24L248.443 456.845L255.071 466.462L244.962 471.857Z" fill="url(#paint35_linear)"/>
<path opacity="0.25" d="M128.998 434.816L183.842 513.295C183.842 513.295 223.025 461.477 230.181 411.047L215.165 388.822L128.998 434.816Z" fill="url(#paint36_linear)"/>
<path d="M603.297 352.368L603.316 352.387C607.892 349.729 613.855 349.846 620.385 353.462C634.795 361.437 646.468 383.154 646.468 401.997C646.468 412.337 642.929 419.647 637.357 422.814L637.455 423.029L527.493 480.75L492.611 411.106L603.297 352.368Z" fill="url(#paint37_linear)"/>
<path d="M508.331 412.943C522.741 420.918 534.414 442.634 534.414 461.477C534.414 480.32 522.741 489.136 508.331 481.161C493.921 473.186 482.249 451.469 482.249 432.626C482.249 413.783 493.941 404.968 508.331 412.943Z" fill="url(#paint38_linear)"/>
<path opacity="0.25" d="M507.354 416.364C520.786 423.791 531.677 444.042 531.677 461.614C531.677 479.186 520.786 487.396 507.354 479.968C493.921 472.541 483.031 452.29 483.031 434.718C483.031 417.145 493.921 408.936 507.354 416.364Z" fill="url(#paint39_linear)"/>
<path d="M501.175 434.561C507.94 438.295 513.415 448.498 513.415 457.333C513.415 466.168 507.94 470.312 501.175 466.579C494.41 462.845 488.935 452.642 488.935 443.807C488.935 434.972 494.41 430.828 501.175 434.561Z" fill="url(#paint40_linear)"/>
<path d="M493.667 442.556C494.918 441.833 496.522 441.872 498.301 442.849C502.212 445.019 505.379 450.902 505.379 456.024C505.379 458.838 504.421 460.813 502.915 461.673L502.935 461.731L497.089 464.487L487.625 445.586L493.667 442.556Z" fill="url(#paint41_linear)"/>
<path d="M491.908 446.075C495.818 448.244 498.985 454.128 498.985 459.249C498.985 464.351 495.818 466.755 491.908 464.585C487.997 462.415 484.83 456.532 484.83 451.411C484.83 446.309 487.997 443.924 491.908 446.075Z" fill="url(#paint42_linear)"/>
<path d="M618.196 366.813L559.48 383.095L569.53 388.334L518.909 408.604L584.761 390.406L574.848 385.871L618.196 366.813Z" fill="url(#paint43_radial)"/>
<path d="M696.62 402.896L696.639 402.915C701.214 400.257 707.178 400.374 713.708 403.99C728.118 411.966 739.791 433.682 739.791 452.525C739.791 462.865 736.252 470.176 730.68 473.342L730.777 473.557L620.815 531.278L585.934 461.634L696.62 402.896Z" fill="url(#paint44_linear)"/>
<path d="M601.654 463.451C616.064 471.426 627.737 493.143 627.737 511.986C627.737 530.829 616.064 539.644 601.654 531.669C587.244 523.694 575.572 501.978 575.572 483.135C575.572 464.292 587.264 455.496 601.654 463.451Z" fill="url(#paint45_linear)"/>
<path opacity="0.25" d="M600.677 466.892C614.109 474.319 625 494.57 625 512.142C625 529.695 614.109 537.924 600.677 530.496C587.244 523.069 576.354 502.818 576.354 485.246C576.354 467.674 587.244 459.464 600.677 466.892Z" fill="url(#paint46_linear)"/>
<path d="M594.498 485.09C601.263 488.823 606.738 499.026 606.738 507.861C606.738 516.697 601.263 520.84 594.498 517.107C587.733 513.374 582.258 503.17 582.258 494.335C582.258 485.48 587.752 481.337 594.498 485.09Z" fill="url(#paint47_linear)"/>
<path d="M586.99 493.084C588.241 492.361 589.845 492.4 591.624 493.377C595.534 495.547 598.702 501.431 598.702 506.552C598.702 509.367 597.744 511.341 596.238 512.201L596.258 512.259L590.412 515.016L580.948 496.114L586.99 493.084Z" fill="url(#paint48_linear)"/>
<path d="M585.23 496.603C589.141 498.772 592.308 504.656 592.308 509.777C592.308 514.879 589.141 517.283 585.23 515.113C581.32 512.944 578.152 507.06 578.152 501.939C578.152 496.818 581.32 494.433 585.23 496.603Z" fill="url(#paint49_linear)"/>
<path d="M711.518 417.341L652.822 433.623L662.853 438.842L612.232 459.132L678.084 440.914L668.19 436.379L711.518 417.341Z" fill="url(#paint50_radial)"/>
<path d="M509.524 516.364V641.385L492.924 650.239L414.715 691.952L392.523 703.778V579.344L509.524 516.364Z" fill="url(#paint51_linear)"/>
<path d="M492.924 559.035V650.239L414.715 691.952V601.119L492.924 559.035Z" fill="url(#paint52_linear)"/>
<path d="M492.924 576.666V650.239L414.715 691.952V618.769L492.924 576.666Z" fill="url(#paint53_linear)"/>
<path d="M392.523 579.344V703.778L279.726 644.571L252.294 630.184L235.949 621.584V495.586L392.523 579.344Z" fill="url(#paint54_linear)"/>
<path d="M279.726 556.845V644.571L252.294 630.184V542.185L279.726 556.845Z" fill="url(#paint55_linear)"/>
<path d="M327.942 582.667V609.836L300.51 595.157V567.987L327.942 582.667Z" fill="url(#paint56_linear)"/>
<path d="M300.51 600.63L327.942 614.997V642.675L300.51 628.289V600.63Z" fill="url(#paint57_linear)"/>
<path d="M360.34 599.262V627.174L332.908 612.514V584.582L360.34 599.262Z" fill="url(#paint58_linear)"/>
<path d="M332.908 617.616L360.34 632.022V659.7L332.908 645.294V617.616Z" fill="url(#paint59_linear)"/>
<path d="M212.564 501.216L392.523 597.307L469.07 469.589L294.997 381.16L212.564 501.216Z" fill="url(#paint60_linear)"/>
<path d="M469.07 469.589L525.42 524.222L392.523 597.307L469.07 469.589Z" fill="url(#paint61_linear)"/>
<path d="M586.228 679.384L557.799 664.782L576.471 681.143L586.228 679.384Z" fill="url(#paint62_linear)"/>
<path d="M513.259 725.162C512.007 724.439 510.404 724.478 508.625 725.455C504.714 727.625 501.547 733.508 501.547 738.629C501.547 741.444 502.505 743.418 504.01 744.278L503.991 744.337L509.837 747.093L519.3 728.192L513.259 725.162Z" fill="#1D262D"/>
<path d="M515.038 728.68C511.127 730.85 507.96 736.733 507.96 741.855C507.96 746.956 511.127 749.361 515.038 747.191C518.948 745.021 522.116 739.138 522.116 734.016C522.116 728.915 518.948 726.53 515.038 728.68Z" fill="#304451"/>
<path d="M515.918 733.332C513.669 734.583 511.831 737.984 511.831 740.916C511.831 743.848 513.649 745.236 515.918 743.985C518.166 742.734 520.004 739.333 520.004 736.401C520.004 733.469 518.166 732.081 515.918 733.332Z" fill="#1D262D"/>
<path d="M515.448 733.977C513.571 735.013 512.066 737.828 512.066 740.291C512.066 742.734 513.591 743.887 515.448 742.851C517.325 741.815 518.831 739.001 518.831 736.538C518.831 734.095 517.325 732.941 515.448 733.977Z" fill="#808081"/>
<path d="M576.041 691.776C574.79 691.053 573.186 691.092 571.407 692.069C567.497 694.239 564.329 700.122 564.329 705.244C564.329 708.058 565.287 710.033 566.793 710.893L566.773 710.951L572.619 713.707L582.083 694.806L576.041 691.776Z" fill="#1D262D"/>
<path d="M577.82 695.294C573.91 697.464 570.742 703.348 570.742 708.469C570.742 713.571 573.91 715.975 577.82 713.805C581.731 711.635 584.898 705.752 584.898 700.631C584.898 695.529 581.731 693.144 577.82 695.294Z" fill="#304451"/>
<path d="M578.68 699.947C576.432 701.198 574.594 704.599 574.594 707.531C574.594 710.463 576.412 711.85 578.68 710.599C580.929 709.349 582.767 705.947 582.767 703.015C582.767 700.083 580.948 698.696 578.68 699.947Z" fill="#1D262D"/>
<path d="M578.231 700.592C576.354 701.628 574.848 704.442 574.848 706.905C574.848 709.348 576.373 710.502 578.231 709.466C580.108 708.43 581.613 705.615 581.613 703.152C581.613 700.709 580.108 699.556 578.231 700.592Z" fill="#808081"/>
<path d="M588.652 683.43V695.06L584.292 697.288C583.197 694.61 580.714 693.692 577.801 695.294C575.063 696.8 572.737 700.162 571.544 703.778L520.923 729.579C519.652 727.781 517.501 727.331 515.018 728.7C512.731 729.97 510.717 732.511 509.426 735.443L499.768 740.369C498.262 741.131 496.483 741.131 494.977 740.33L459.353 721.702C457.632 720.803 456.557 719.005 456.557 717.069V715.936C456.557 712.652 458.004 709.544 460.448 707.394C460.839 707.042 461.25 706.729 461.699 706.436L487.606 687.769L497.558 674.927C499.377 672.562 501.488 670.431 503.776 668.555C506.161 666.619 508.762 664.958 511.518 663.59L531.559 653.758C535.138 651.999 539.341 652.057 542.861 653.914L566.421 666.287C567.379 666.776 568.279 667.421 569.1 668.144C569.608 668.594 570.097 669.082 570.527 669.61L578.876 679.696L583.236 678.895C586.052 678.406 588.652 680.576 588.652 683.43Z" fill="url(#paint63_linear)"/>
<path d="M502.446 672.249L489.385 688.297C503.208 701.354 528.881 705.205 528.881 705.205L533.456 687.28C533.867 685.873 533.221 684.368 531.911 683.703L506.982 671.272C505.418 670.509 503.541 670.92 502.446 672.249Z" fill="#404041"/>
<path d="M562.725 672.073L552.382 677.253L556.078 692.011L576.549 681.358L569.823 673.52C568.063 671.448 565.13 670.861 562.725 672.073Z" fill="#404041"/>
<path d="M533.026 704.13L553.458 693.223L550.388 678.172L542.294 681.807C538.911 683.332 536.487 686.381 535.783 690.017L533.026 704.13Z" fill="#404041"/>
<path d="M456.557 717.069L495.251 737.378C495.916 737.73 496.698 737.73 497.363 737.418L504.91 733.762C505.614 733.41 506.435 733.938 506.435 734.72V737.887C506.435 739.059 505.77 740.115 504.734 740.623L498.692 743.594C497.48 744.2 496.033 744.181 494.84 743.536L457.672 723.989C456.186 723.207 455.267 721.663 455.267 720.001V718.418L456.557 717.069Z" fill="url(#paint64_linear)"/>
<path d="M530.113 706.436L497.402 725.787L460.467 707.413C460.858 707.062 461.269 706.749 461.719 706.456L487.626 687.789C499.963 704.599 530.113 706.436 530.113 706.436Z" fill="url(#paint65_linear)"/>
<path d="M462.599 714.567C462.599 716.503 461.504 718.066 460.135 718.066C458.766 718.066 457.672 716.503 457.672 714.567C457.672 712.632 458.766 711.069 460.135 711.069C461.484 711.069 462.599 712.632 462.599 714.567Z" fill="white"/>
<path d="M495.72 730.107C495.72 732.042 494.625 733.606 493.257 733.606C491.888 733.606 490.793 732.042 490.793 730.107C490.793 728.172 491.888 726.608 493.257 726.608C494.606 726.608 495.72 728.172 495.72 730.107Z" fill="white"/>
<path d="M569.119 668.164C567.008 667.831 565.287 668.496 565.287 668.496L534.962 682.687C534.962 682.687 514.334 672.21 509.035 670.021C506.689 669.063 504.968 668.672 503.776 668.555C506.161 666.619 508.762 664.958 511.518 663.59L531.559 653.758C535.138 651.999 539.341 652.057 542.861 653.914L566.421 666.287C567.418 666.795 568.318 667.421 569.119 668.164Z" fill="url(#paint66_linear)"/>
<path d="M711.518 705.205L710.267 726.139C718.088 732.844 725.537 726.139 725.537 726.139L724.403 705.205H711.518Z" fill="url(#paint67_linear)"/>
<path d="M719.046 607.862L754.553 699.575C754.553 699.575 718.811 731.769 681.291 699.575L719.046 607.862Z" fill="url(#paint68_linear)"/>
<path d="M627.247 731.342L625.996 752.277C633.817 758.981 641.266 752.277 641.266 752.277L640.132 731.342H627.247Z" fill="url(#paint69_linear)"/>
<path d="M634.755 634L670.262 725.713C670.262 725.713 634.52 757.906 597 725.713L634.755 634Z" fill="url(#paint70_linear)"/>
<path d="M748.159 611.4L746.908 632.335C754.729 639.039 762.178 632.335 762.178 632.335L761.044 611.4H748.159Z" fill="url(#paint71_linear)"/>
<path d="M755.667 514.077L791.174 605.79C791.174 605.79 755.433 637.984 717.912 605.79L755.667 514.077Z" fill="url(#paint72_linear)"/>
<path d="M656.616 633.488L655.364 654.422C663.185 661.127 670.635 654.422 670.635 654.422L669.501 633.488H656.616Z" fill="url(#paint73_linear)"/>
<path d="M664.143 536.165L699.65 627.878C699.65 627.878 663.909 660.071 626.388 627.878L664.143 536.165Z" fill="url(#paint74_linear)"/>
<path d="M550.74 834.037L549.489 854.971C557.31 861.676 564.759 854.971 564.759 854.971L563.625 834.037H550.74Z" fill="url(#paint75_linear)"/>
<path d="M558.248 736.694L593.755 828.407C593.755 828.407 558.013 860.601 520.493 828.407L558.248 736.694Z" fill="url(#paint76_linear)"/>
<path d="M570.227 289.342L568.976 310.277C576.797 316.981 584.246 310.277 584.246 310.277L583.112 289.342H570.227Z" fill="url(#paint77_linear)"/>
<path d="M577.755 192L613.262 283.713C613.262 283.713 577.52 315.906 540 283.713L577.755 192Z" fill="url(#paint78_linear)"/>
<path d="M660.247 824.342L658.995 845.277C666.816 851.981 674.266 845.277 674.266 845.277L673.132 824.342H660.247Z" fill="url(#paint79_linear)"/>
<path d="M667.755 727L703.262 818.713C703.262 818.713 667.52 850.906 630 818.713L667.755 727Z" fill="url(#paint80_linear)"/>
<path d="M747.247 804.342L745.996 825.277C753.817 831.981 761.266 825.277 761.266 825.277L760.132 804.342H747.247Z" fill="url(#paint81_linear)"/>
<path d="M754.755 707L790.262 798.713C790.262 798.713 754.52 830.906 717 798.713L754.755 707Z" fill="url(#paint82_linear)"/>
<path d="M167.77 784.701L166.519 805.635C174.339 812.34 181.789 805.635 181.789 805.635L180.655 784.701H167.77Z" fill="url(#paint83_linear)"/>
<path d="M175.278 687.359L210.785 779.071C210.785 779.071 175.043 811.265 137.523 779.071L175.278 687.359Z" fill="url(#paint84_linear)"/>
<path d="M124.168 825.749L122.917 846.683C130.738 853.388 138.187 846.683 138.187 846.683L137.053 825.749H124.168Z" fill="url(#paint85_linear)"/>
<path d="M131.676 728.426L167.183 820.139C167.183 820.139 131.442 852.332 93.921 820.139L131.676 728.426Z" fill="url(#paint86_linear)"/>
<path d="M185.25 591.306L183.998 612.241C191.819 618.945 199.269 612.241 199.269 612.241L198.135 591.306H185.25Z" fill="url(#paint87_linear)"/>
<path d="M192.777 493.964L228.284 585.677C228.284 585.677 192.543 617.87 155.022 585.677L192.777 493.964Z" fill="url(#paint88_linear)"/>
<defs>
<linearGradient id="paint0_linear" x1="386.562" y1="262.683" x2="386.562" y2="839.2" gradientUnits="userSpaceOnUse">
<stop offset="0.3602" stop-color="#79F73E"/>
<stop offset="0.4428" stop-color="#93F266"/>
<stop offset="0.6059" stop-color="#85ED55"/>
<stop offset="0.796875" stop-color="#7DF445"/>
<stop offset="1" stop-color="#5AE718"/>
</linearGradient>
<linearGradient id="paint1_linear" x1="724.125" y1="90.4966" x2="724.125" y2="129.502" gradientUnits="userSpaceOnUse">
<stop stop-color="#00427A"/>
<stop offset="1" stop-color="#00B4E7"/>
</linearGradient>
<linearGradient id="paint2_linear" x1="724.125" y1="-2.37824" x2="724.125" y2="135.1" gradientUnits="userSpaceOnUse">
<stop stop-color="#35E695"/>
<stop offset="0.6223" stop-color="#12B998"/>
<stop offset="1" stop-color="#00A399"/>
</linearGradient>
<linearGradient id="paint3_linear" x1="604.496" y1="94.8308" x2="604.496" y2="133.836" gradientUnits="userSpaceOnUse">
<stop stop-color="#00427A"/>
<stop offset="1" stop-color="#00B4E7"/>
</linearGradient>
<linearGradient id="paint4_linear" x1="604.496" y1="1.95603" x2="604.496" y2="139.435" gradientUnits="userSpaceOnUse">
<stop stop-color="#35E695"/>
<stop offset="0.6223" stop-color="#12B998"/>
<stop offset="1" stop-color="#00A399"/>
</linearGradient>
<linearGradient id="paint5_linear" x1="655.371" y1="140.215" x2="655.371" y2="179.22" gradientUnits="userSpaceOnUse">
<stop stop-color="#00427A"/>
<stop offset="1" stop-color="#00B4E7"/>
</linearGradient>
<linearGradient id="paint6_linear" x1="655.371" y1="47.3401" x2="655.371" y2="184.819" gradientUnits="userSpaceOnUse">
<stop stop-color="#35E695"/>
<stop offset="0.6223" stop-color="#12B998"/>
<stop offset="1" stop-color="#00A399"/>
</linearGradient>
<linearGradient id="paint7_linear" x1="716.493" y1="185.599" x2="716.493" y2="224.604" gradientUnits="userSpaceOnUse">
<stop stop-color="#00427A"/>
<stop offset="1" stop-color="#00B4E7"/>
</linearGradient>
<linearGradient id="paint8_linear" x1="716.493" y1="92.7241" x2="716.493" y2="230.202" gradientUnits="userSpaceOnUse">
<stop stop-color="#35E695"/>
<stop offset="0.6223" stop-color="#12B998"/>
<stop offset="1" stop-color="#00A399"/>
</linearGradient>
<linearGradient id="paint9_linear" x1="679.858" y1="246.223" x2="679.858" y2="285.228" gradientUnits="userSpaceOnUse">
<stop stop-color="#00427A"/>
<stop offset="1" stop-color="#00B4E7"/>
</linearGradient>
<linearGradient id="paint10_linear" x1="679.858" y1="153.348" x2="679.858" y2="290.826" gradientUnits="userSpaceOnUse">
<stop stop-color="#35E695"/>
<stop offset="0.6223" stop-color="#12B998"/>
<stop offset="1" stop-color="#00A399"/>
</linearGradient>
<linearGradient id="paint11_linear" x1="731.757" y1="323.607" x2="731.757" y2="362.612" gradientUnits="userSpaceOnUse">
<stop stop-color="#00427A"/>
<stop offset="1" stop-color="#00B4E7"/>
</linearGradient>
<linearGradient id="paint12_linear" x1="731.757" y1="230.733" x2="731.757" y2="368.211" gradientUnits="userSpaceOnUse">
<stop stop-color="#35E695"/>
<stop offset="0.6223" stop-color="#12B998"/>
<stop offset="1" stop-color="#00A399"/>
</linearGradient>
<linearGradient id="paint13_linear" x1="350.382" y1="353.238" x2="512.865" y2="353.238" gradientUnits="userSpaceOnUse">
<stop stop-color="#00427A"/>
<stop offset="1" stop-color="#00B4E7"/>
</linearGradient>
<linearGradient id="paint14_linear" x1="367.07" y1="344.866" x2="393.143" y2="344.866" gradientUnits="userSpaceOnUse">
<stop stop-color="#0065CA"/>
<stop offset="0.4489" stop-color="#00B4E7"/>
<stop offset="1" stop-color="#31C998"/>
</linearGradient>
<linearGradient id="paint15_linear" x1="365.726" y1="357.776" x2="383.475" y2="357.776" gradientUnits="userSpaceOnUse">
<stop stop-color="#0065CA"/>
<stop offset="0.4489" stop-color="#00B4E7"/>
<stop offset="1" stop-color="#31C998"/>
</linearGradient>
<linearGradient id="paint16_linear" x1="376.578" y1="345.39" x2="383.468" y2="345.39" gradientUnits="userSpaceOnUse">
<stop stop-color="#0FB8C8"/>
<stop offset="0.4489" stop-color="#9FC89D"/>
<stop offset="1" stop-color="#E9D38D"/>
</linearGradient>
<linearGradient id="paint17_linear" x1="368.334" y1="329.206" x2="510.17" y2="329.206" gradientUnits="userSpaceOnUse">
<stop stop-color="#22177E"/>
<stop offset="1" stop-color="#493EFF"/>
</linearGradient>
<linearGradient id="paint18_linear" x1="368.992" y1="326.263" x2="510.17" y2="326.263" gradientUnits="userSpaceOnUse">
<stop stop-color="#31C998"/>
<stop offset="0.4489" stop-color="#00B4E7"/>
<stop offset="1" stop-color="#0065CA"/>
</linearGradient>
<linearGradient id="paint19_linear" x1="412.806" y1="285.768" x2="467.651" y2="368.75" gradientUnits="userSpaceOnUse">
<stop stop-color="#1D262D" stop-opacity="0.3"/>
<stop offset="1" stop-color="#1D262D"/>
</linearGradient>
<linearGradient id="paint20_linear" x1="417.747" y1="260.631" x2="424.198" y2="387.848" gradientUnits="userSpaceOnUse">
<stop stop-color="white"/>
<stop offset="1" stop-color="white" stop-opacity="0"/>
</linearGradient>
<linearGradient id="paint21_linear" x1="229.94" y1="415.846" x2="392.423" y2="415.846" gradientUnits="userSpaceOnUse">
<stop stop-color="#00427A"/>
<stop offset="1" stop-color="#00B4E7"/>
</linearGradient>
<linearGradient id="paint22_linear" x1="246.627" y1="407.473" x2="272.701" y2="407.473" gradientUnits="userSpaceOnUse">
<stop stop-color="#0065CA"/>
<stop offset="0.4489" stop-color="#00B4E7"/>
<stop offset="1" stop-color="#31C998"/>
</linearGradient>
<linearGradient id="paint23_linear" x1="245.284" y1="420.383" x2="263.033" y2="420.383" gradientUnits="userSpaceOnUse">
<stop stop-color="#0065CA"/>
<stop offset="0.4489" stop-color="#00B4E7"/>
<stop offset="1" stop-color="#31C998"/>
</linearGradient>
<linearGradient id="paint24_linear" x1="256.135" y1="407.997" x2="263.025" y2="407.997" gradientUnits="userSpaceOnUse">
<stop stop-color="#0FB8C8"/>
<stop offset="0.4489" stop-color="#9FC89D"/>
<stop offset="1" stop-color="#E9D38D"/>
</linearGradient>
<linearGradient id="paint25_linear" x1="247.892" y1="391.813" x2="389.727" y2="391.813" gradientUnits="userSpaceOnUse">
<stop stop-color="#22177E"/>
<stop offset="1" stop-color="#493EFF"/>
</linearGradient>
<linearGradient id="paint26_linear" x1="248.549" y1="388.87" x2="389.727" y2="388.87" gradientUnits="userSpaceOnUse">
<stop stop-color="#31C998"/>
<stop offset="0.4489" stop-color="#00B4E7"/>
<stop offset="1" stop-color="#0065CA"/>
</linearGradient>
<linearGradient id="paint27_linear" x1="292.364" y1="348.375" x2="347.208" y2="431.357" gradientUnits="userSpaceOnUse">
<stop stop-color="#1D262D" stop-opacity="0.3"/>
<stop offset="1" stop-color="#1D262D"/>
</linearGradient>
<linearGradient id="paint28_linear" x1="297.305" y1="323.238" x2="303.756" y2="450.455" gradientUnits="userSpaceOnUse">
<stop stop-color="white"/>
<stop offset="1" stop-color="white" stop-opacity="0"/>
</linearGradient>
<linearGradient id="paint29_linear" x1="110.396" y1="479.372" x2="272.879" y2="479.372" gradientUnits="userSpaceOnUse">
<stop stop-color="#00427A"/>
<stop offset="1" stop-color="#00B4E7"/>
</linearGradient>
<linearGradient id="paint30_linear" x1="127.084" y1="471" x2="153.157" y2="471" gradientUnits="userSpaceOnUse">
<stop stop-color="#0065CA"/>
<stop offset="0.4489" stop-color="#00B4E7"/>
<stop offset="1" stop-color="#31C998"/>
</linearGradient>
<linearGradient id="paint31_linear" x1="125.741" y1="483.91" x2="143.489" y2="483.91" gradientUnits="userSpaceOnUse">
<stop stop-color="#0065CA"/>
<stop offset="0.4489" stop-color="#00B4E7"/>
<stop offset="1" stop-color="#31C998"/>
</linearGradient>
<linearGradient id="paint32_linear" x1="136.592" y1="471.524" x2="143.482" y2="471.524" gradientUnits="userSpaceOnUse">
<stop stop-color="#0FB8C8"/>
<stop offset="0.4489" stop-color="#9FC89D"/>
<stop offset="1" stop-color="#E9D38D"/>
</linearGradient>
<linearGradient id="paint33_linear" x1="128.349" y1="455.34" x2="270.184" y2="455.34" gradientUnits="userSpaceOnUse">
<stop stop-color="#22177E"/>
<stop offset="1" stop-color="#493EFF"/>
</linearGradient>
<linearGradient id="paint34_linear" x1="129.006" y1="452.397" x2="270.184" y2="452.397" gradientUnits="userSpaceOnUse">
<stop stop-color="#31C998"/>
<stop offset="0.4489" stop-color="#00B4E7"/>
<stop offset="1" stop-color="#0065CA"/>
</linearGradient>
<linearGradient id="paint35_linear" x1="172.82" y1="411.902" x2="227.665" y2="494.884" gradientUnits="userSpaceOnUse">
<stop stop-color="#1D262D" stop-opacity="0.3"/>
<stop offset="1" stop-color="#1D262D"/>
</linearGradient>
<linearGradient id="paint36_linear" x1="177.761" y1="386.764" x2="184.213" y2="513.982" gradientUnits="userSpaceOnUse">
<stop stop-color="white"/>
<stop offset="1" stop-color="white" stop-opacity="0"/>
</linearGradient>
<linearGradient id="paint37_linear" x1="557.38" y1="375.706" x2="592.405" y2="445.776" gradientUnits="userSpaceOnUse">
<stop stop-color="#31C998"/>
<stop offset="0.4489" stop-color="#00B4E7"/>
<stop offset="1" stop-color="#0065CA"/>
</linearGradient>
<linearGradient id="paint38_linear" x1="508.336" y1="400.925" x2="508.336" y2="500.695" gradientUnits="userSpaceOnUse">
<stop stop-color="#31C998"/>
<stop offset="0.4489" stop-color="#00B4E7"/>
<stop offset="1" stop-color="#0065CA"/>
</linearGradient>
<linearGradient id="paint39_linear" x1="507.345" y1="405.162" x2="507.345" y2="498.171" gradientUnits="userSpaceOnUse">
<stop stop-color="#1D262D" stop-opacity="0.3"/>
<stop offset="1" stop-color="#1D262D"/>
</linearGradient>
<linearGradient id="paint40_linear" x1="488.939" y1="450.577" x2="513.422" y2="450.577" gradientUnits="userSpaceOnUse">
<stop stop-color="#0FB8C8"/>
<stop offset="0.4489" stop-color="#9FC89D"/>
<stop offset="1" stop-color="#E9D38D"/>
</linearGradient>
<linearGradient id="paint41_linear" x1="487.635" y1="453.277" x2="505.382" y2="453.277" gradientUnits="userSpaceOnUse">
<stop stop-color="#0065CA"/>
<stop offset="0.4489" stop-color="#00B4E7"/>
<stop offset="1" stop-color="#31C998"/>
</linearGradient>
<linearGradient id="paint42_linear" x1="484.824" y1="455.332" x2="498.976" y2="455.332" gradientUnits="userSpaceOnUse">
<stop stop-color="#0FB8C8"/>
<stop offset="0.4489" stop-color="#9FC89D"/>
<stop offset="1" stop-color="#E9D38D"/>
</linearGradient>
<radialGradient id="paint43_radial" cx="0" cy="0" r="1" gradientUnits="userSpaceOnUse" gradientTransform="translate(568.557 387.712) scale(38.086 38.0751)">
<stop stop-color="#FFEE00"/>
<stop offset="1" stop-color="#FFA726"/>
</radialGradient>
<linearGradient id="paint44_linear" x1="650.704" y1="426.222" x2="685.729" y2="496.292" gradientUnits="userSpaceOnUse">
<stop stop-color="#31C998"/>
<stop offset="0.4489" stop-color="#00B4E7"/>
<stop offset="1" stop-color="#0065CA"/>
</linearGradient>
<linearGradient id="paint45_linear" x1="601.66" y1="451.441" x2="601.66" y2="551.21" gradientUnits="userSpaceOnUse">
<stop stop-color="#31C998"/>
<stop offset="0.4489" stop-color="#00B4E7"/>
<stop offset="1" stop-color="#0065CA"/>
</linearGradient>
<linearGradient id="paint46_linear" x1="600.669" y1="455.678" x2="600.669" y2="548.687" gradientUnits="userSpaceOnUse">
<stop stop-color="#1D262D" stop-opacity="0.3"/>
<stop offset="1" stop-color="#1D262D"/>
</linearGradient>
<linearGradient id="paint47_linear" x1="582.263" y1="501.093" x2="606.746" y2="501.093" gradientUnits="userSpaceOnUse">
<stop stop-color="#0FB8C8"/>
<stop offset="0.4489" stop-color="#9FC89D"/>
<stop offset="1" stop-color="#E9D38D"/>
</linearGradient>
<linearGradient id="paint48_linear" x1="580.959" y1="503.793" x2="598.706" y2="503.793" gradientUnits="userSpaceOnUse">
<stop stop-color="#0065CA"/>
<stop offset="0.4489" stop-color="#00B4E7"/>
<stop offset="1" stop-color="#31C998"/>
</linearGradient>
<linearGradient id="paint49_linear" x1="578.147" y1="505.848" x2="592.3" y2="505.848" gradientUnits="userSpaceOnUse">
<stop stop-color="#0FB8C8"/>
<stop offset="0.4489" stop-color="#9FC89D"/>
<stop offset="1" stop-color="#E9D38D"/>
</linearGradient>
<radialGradient id="paint50_radial" cx="0" cy="0" r="1" gradientUnits="userSpaceOnUse" gradientTransform="translate(661.881 438.227) scale(38.0861 38.0752)">
<stop stop-color="#FFEE00"/>
<stop offset="1" stop-color="#FFA726"/>
</radialGradient>
<linearGradient id="paint51_linear" x1="451.018" y1="490.075" x2="451.018" y2="691.958" gradientUnits="userSpaceOnUse">
<stop stop-color="white"/>
<stop offset="0.0913" stop-color="#F8FDFD"/>
<stop offset="0.2257" stop-color="#E4F7F9"/>
<stop offset="0.3868" stop-color="#C3EDF1"/>
<stop offset="0.5686" stop-color="#96E0E7"/>
<stop offset="0.7677" stop-color="#5CCFDA"/>
<stop offset="0.9783" stop-color="#17BACA"/>
<stop offset="1" stop-color="#0FB8C8"/>
</linearGradient>
<linearGradient id="paint52_linear" x1="453.822" y1="556.449" x2="453.822" y2="624.097" gradientUnits="userSpaceOnUse">
<stop stop-color="#0FB8C8"/>
<stop offset="0.4489" stop-color="#9FC89D"/>
<stop offset="1" stop-color="#E9D38D"/>
</linearGradient>
<linearGradient id="paint53_linear" x1="453.822" y1="705.176" x2="453.822" y2="459.346" gradientUnits="userSpaceOnUse">
<stop stop-color="#0065CA"/>
<stop offset="0.4489" stop-color="#00B4E7"/>
<stop offset="1" stop-color="#31C998"/>
</linearGradient>
<linearGradient id="paint54_linear" x1="341.081" y1="531.234" x2="291.925" y2="656.616" gradientUnits="userSpaceOnUse">
<stop stop-color="white"/>
<stop offset="0.0913" stop-color="#F8FDFD"/>
<stop offset="0.2257" stop-color="#E4F7F9"/>
<stop offset="0.3868" stop-color="#C3EDF1"/>
<stop offset="0.5686" stop-color="#96E0E7"/>
<stop offset="0.7677" stop-color="#5CCFDA"/>
<stop offset="0.9783" stop-color="#17BACA"/>
<stop offset="1" stop-color="#0FB8C8"/>
</linearGradient>
<linearGradient id="paint55_linear" x1="266.013" y1="705.176" x2="266.013" y2="459.346" gradientUnits="userSpaceOnUse">
<stop stop-color="#0065CA"/>
<stop offset="0.4489" stop-color="#00B4E7"/>
<stop offset="1" stop-color="#31C998"/>
</linearGradient>
<linearGradient id="paint56_linear" x1="314.221" y1="705.176" x2="314.221" y2="459.346" gradientUnits="userSpaceOnUse">
<stop stop-color="#0065CA"/>
<stop offset="0.4489" stop-color="#00B4E7"/>
<stop offset="1" stop-color="#31C998"/>
</linearGradient>
<linearGradient id="paint57_linear" x1="314.221" y1="705.176" x2="314.221" y2="459.347" gradientUnits="userSpaceOnUse">
<stop stop-color="#0065CA"/>
<stop offset="0.4489" stop-color="#00B4E7"/>
<stop offset="1" stop-color="#31C998"/>
</linearGradient>
<linearGradient id="paint58_linear" x1="346.625" y1="705.176" x2="346.625" y2="459.346" gradientUnits="userSpaceOnUse">
<stop stop-color="#0065CA"/>
<stop offset="0.4489" stop-color="#00B4E7"/>
<stop offset="1" stop-color="#31C998"/>
</linearGradient>
<linearGradient id="paint59_linear" x1="346.625" y1="705.176" x2="346.625" y2="459.346" gradientUnits="userSpaceOnUse">
<stop stop-color="#0065CA"/>
<stop offset="0.4489" stop-color="#00B4E7"/>
<stop offset="1" stop-color="#31C998"/>
</linearGradient>
<linearGradient id="paint60_linear" x1="212.568" y1="489.231" x2="469.066" y2="489.231" gradientUnits="userSpaceOnUse">
<stop stop-color="#0FB8C8"/>
<stop offset="0.4489" stop-color="#9FC89D"/>
<stop offset="1" stop-color="#E9D38D"/>
</linearGradient>
<linearGradient id="paint61_linear" x1="458.966" y1="705.176" x2="458.966" y2="459.347" gradientUnits="userSpaceOnUse">
<stop stop-color="#0065CA"/>
<stop offset="0.4489" stop-color="#00B4E7"/>
<stop offset="1" stop-color="#31C998"/>
</linearGradient>
<linearGradient id="paint62_linear" x1="557.799" y1="672.962" x2="586.231" y2="672.962" gradientUnits="userSpaceOnUse">
<stop stop-color="#31C998"/>
<stop offset="0.4489" stop-color="#00B4E7"/>
<stop offset="1" stop-color="#0065CA"/>
</linearGradient>
<linearGradient id="paint63_linear" x1="506.927" y1="669.325" x2="533.963" y2="722.799" gradientUnits="userSpaceOnUse">
<stop stop-color="#31C998"/>
<stop offset="0.4489" stop-color="#00B4E7"/>
<stop offset="1" stop-color="#0065CA"/>
</linearGradient>
<linearGradient id="paint64_linear" x1="455.252" y1="730.547" x2="506.429" y2="730.547" gradientUnits="userSpaceOnUse">
<stop stop-color="#00427A"/>
<stop offset="1" stop-color="#00B4E7"/>
</linearGradient>
<linearGradient id="paint65_linear" x1="460.446" y1="706.782" x2="530.103" y2="706.782" gradientUnits="userSpaceOnUse">
<stop stop-color="white"/>
<stop offset="1" stop-color="white" stop-opacity="0"/>
</linearGradient>
<linearGradient id="paint66_linear" x1="503.786" y1="667.586" x2="569.128" y2="667.586" gradientUnits="userSpaceOnUse">
<stop stop-color="white"/>
<stop offset="1" stop-color="white" stop-opacity="0"/>
</linearGradient>
<linearGradient id="paint67_linear" x1="717.907" y1="698.364" x2="717.907" y2="737.369" gradientUnits="userSpaceOnUse">
<stop stop-color="#00427A"/>
<stop offset="1" stop-color="#00B4E7"/>
</linearGradient>
<linearGradient id="paint68_linear" x1="717.907" y1="605.489" x2="717.907" y2="742.968" gradientUnits="userSpaceOnUse">
<stop stop-color="#35E695"/>
<stop offset="0.6223" stop-color="#12B998"/>
<stop offset="1" stop-color="#00A399"/>
</linearGradient>
<linearGradient id="paint69_linear" x1="633.621" y1="724.5" x2="633.621" y2="763.505" gradientUnits="userSpaceOnUse">
<stop stop-color="#00427A"/>
<stop offset="1" stop-color="#00B4E7"/>
</linearGradient>
<linearGradient id="paint70_linear" x1="633.621" y1="631.625" x2="633.621" y2="769.104" gradientUnits="userSpaceOnUse">
<stop stop-color="#35E695"/>
<stop offset="0.6223" stop-color="#12B998"/>
<stop offset="1" stop-color="#00A399"/>
</linearGradient>
<linearGradient id="paint71_linear" x1="754.542" y1="604.566" x2="754.542" y2="643.571" gradientUnits="userSpaceOnUse">
<stop stop-color="#00427A"/>
<stop offset="1" stop-color="#00B4E7"/>
</linearGradient>
<linearGradient id="paint72_linear" x1="754.542" y1="511.691" x2="754.542" y2="649.17" gradientUnits="userSpaceOnUse">
<stop stop-color="#35E695"/>
<stop offset="0.6223" stop-color="#12B998"/>
<stop offset="1" stop-color="#00A399"/>
</linearGradient>
<linearGradient id="paint73_linear" x1="663.003" y1="626.653" x2="663.003" y2="665.658" gradientUnits="userSpaceOnUse">
<stop stop-color="#00427A"/>
<stop offset="1" stop-color="#00B4E7"/>
</linearGradient>
<linearGradient id="paint74_linear" x1="663.003" y1="533.778" x2="663.003" y2="671.257" gradientUnits="userSpaceOnUse">
<stop stop-color="#35E695"/>
<stop offset="0.6223" stop-color="#12B998"/>
<stop offset="1" stop-color="#00A399"/>
</linearGradient>
<linearGradient id="paint75_linear" x1="557.113" y1="827.19" x2="557.113" y2="866.196" gradientUnits="userSpaceOnUse">
<stop stop-color="#00427A"/>
<stop offset="1" stop-color="#00B4E7"/>
</linearGradient>
<linearGradient id="paint76_linear" x1="557.113" y1="734.316" x2="557.113" y2="871.794" gradientUnits="userSpaceOnUse">
<stop stop-color="#35E695"/>
<stop offset="0.6223" stop-color="#12B998"/>
<stop offset="1" stop-color="#00A399"/>
</linearGradient>
<linearGradient id="paint77_linear" x1="576.615" y1="282.496" x2="576.615" y2="321.501" gradientUnits="userSpaceOnUse">
<stop stop-color="#00427A"/>
<stop offset="1" stop-color="#00B4E7"/>
</linearGradient>
<linearGradient id="paint78_linear" x1="576.615" y1="189.621" x2="576.615" y2="327.1" gradientUnits="userSpaceOnUse">
<stop stop-color="#35E695"/>
<stop offset="0.6223" stop-color="#12B998"/>
<stop offset="1" stop-color="#00A399"/>
</linearGradient>
<linearGradient id="paint79_linear" x1="666.629" y1="817.505" x2="666.629" y2="856.51" gradientUnits="userSpaceOnUse">
<stop stop-color="#00427A"/>
<stop offset="1" stop-color="#00B4E7"/>
</linearGradient>
<linearGradient id="paint80_linear" x1="666.629" y1="724.63" x2="666.629" y2="862.109" gradientUnits="userSpaceOnUse">
<stop stop-color="#35E695"/>
<stop offset="0.6223" stop-color="#12B998"/>
<stop offset="1" stop-color="#00A399"/>
</linearGradient>
<linearGradient id="paint81_linear" x1="753.629" y1="797.502" x2="753.629" y2="836.507" gradientUnits="userSpaceOnUse">
<stop stop-color="#00427A"/>
<stop offset="1" stop-color="#00B4E7"/>
</linearGradient>
<linearGradient id="paint82_linear" x1="753.629" y1="704.627" x2="753.629" y2="842.105" gradientUnits="userSpaceOnUse">
<stop stop-color="#35E695"/>
<stop offset="0.6223" stop-color="#12B998"/>
<stop offset="1" stop-color="#00A399"/>
</linearGradient>
<linearGradient id="paint83_linear" x1="174.152" y1="777.864" x2="174.152" y2="816.869" gradientUnits="userSpaceOnUse">
<stop stop-color="#00427A"/>
<stop offset="1" stop-color="#00B4E7"/>
</linearGradient>
<linearGradient id="paint84_linear" x1="174.152" y1="684.99" x2="174.152" y2="822.468" gradientUnits="userSpaceOnUse">
<stop stop-color="#35E695"/>
<stop offset="0.6223" stop-color="#12B998"/>
<stop offset="1" stop-color="#00A399"/>
</linearGradient>
<linearGradient id="paint85_linear" x1="130.545" y1="818.914" x2="130.545" y2="857.919" gradientUnits="userSpaceOnUse">
<stop stop-color="#00427A"/>
<stop offset="1" stop-color="#00B4E7"/>
</linearGradient>
<linearGradient id="paint86_linear" x1="130.545" y1="726.039" x2="130.545" y2="863.518" gradientUnits="userSpaceOnUse">
<stop stop-color="#35E695"/>
<stop offset="0.6223" stop-color="#12B998"/>
<stop offset="1" stop-color="#00A399"/>
</linearGradient>
<linearGradient id="paint87_linear" x1="191.638" y1="584.457" x2="191.638" y2="623.462" gradientUnits="userSpaceOnUse">
<stop stop-color="#00427A"/>
<stop offset="1" stop-color="#00B4E7"/>
</linearGradient>
<linearGradient id="paint88_linear" x1="191.638" y1="491.582" x2="191.638" y2="629.061" gradientUnits="userSpaceOnUse">
<stop stop-color="#35E695"/>
<stop offset="0.6223" stop-color="#12B998"/>
<stop offset="1" stop-color="#00A399"/>
</linearGradient>
</defs>
</svg>
